<svg id="Layer_1" data-name="Layer 1" xmlns="http://www.w3.org/2000/svg" viewBox="0 0 512 512"><defs><style>.cls-1{fill:#d9e4e8;}.cls-2{fill:#141f38;}.cls-3{opacity:0.14;}.cls-4{fill:#17292d;}.cls-5{fill:#fff100;}.cls-6{fill:#79d3d3;}</style></defs><title>uranus_style_3</title><path class="cls-1" d="M255.65,461.06c-113.07,0-205.06-92-205.06-205.06s92-205.06,205.06-205.06,205.06,92,205.06,205.06S368.72,461.06,255.65,461.06Z"/><path class="cls-2" d="M412,104.32v.32h.32C412.26,104.51,412.13,104.45,412,104.32Z"/><g class="cls-3"><path class="cls-4" d="M383.75,112.7a210.93,210.93,0,0,1,12.87,72.81C396.63,302.31,302,397,185.16,397a211,211,0,0,1-72.81-12.87,191.74,191.74,0,0,0,143.3,64.14c106.18,0,192.24-86.07,192.24-192.24A191.73,191.73,0,0,0,383.75,112.7Z"/></g><path class="cls-2" d="M412,104.32v.32h.32C412.26,104.51,412.13,104.45,412,104.32Z"/><path class="cls-5" d="M412.33,104.64H412v-.32C412.13,104.45,412.27,104.52,412.33,104.64Z"/><path class="cls-2" d="M412,104.32v.32h.32c-.06-.12-.19-.19-.32-.32Z"/><path class="cls-2" d="M223.61,320.08a12.85,12.85,0,0,1-12.82,12.82H191.57a12.85,12.85,0,0,1-12.82-12.82,12.91,12.91,0,0,1,12.82-12.82h19.22A12.85,12.85,0,0,1,223.61,320.08Z"/><path class="cls-6" d="M326.14,384.17a32,32,0,1,1,32-32A32.08,32.08,0,0,1,326.14,384.17Z"/><path class="cls-2" d="M503.71,117.33C488.84,91.5,455.65,79,412,79a270,270,0,0,0-27.23,1.47A216.61,216.61,0,0,0,255.65,38.12C135.3,38.12,37.77,135.65,37.77,256c0,7.37.38,14.67,1.09,21.85C3,325.66-10.1,371.54,8.29,403.39c14.87,25.82,48.06,38.32,91.7,38.32a276.17,276.17,0,0,0,37.3-2.69h.06a217,217,0,0,0,118.29,34.86C376,473.88,473.52,376.34,473.52,256c0-4.42-.13-8.78-.38-13.14C509,195.06,522.1,149.18,503.71,117.33ZM100,416.08c-35.31,0-60-9-69.53-25.5-10-17.3-4.17-44.92,15.12-76.58a218.05,218.05,0,0,0,62,101.89C105,416,102.49,416.08,100,416.08ZM79.49,332.9h73.63a12.82,12.82,0,1,0,0-25.63H70.32a189,189,0,0,1-5.19-25.63h177.7a12.82,12.82,0,1,0,0-25.63H63.4c0-106,86.25-192.24,192.24-192.24a191.3,191.3,0,0,1,143.09,64.08H281.28a12.91,12.91,0,0,0-12.82,12.82,12.85,12.85,0,0,0,12.82,12.82H418.16a181.38,181.38,0,0,1,13.59,25.63H345.36a12.91,12.91,0,0,0-12.82,12.82,12.85,12.85,0,0,0,12.82,12.82h95.48a186.56,186.56,0,0,1,5.83,30c-22.11,27.55-52.74,56.65-90.87,83.82a44.41,44.41,0,0,0-29.67-11.28,44.87,44.87,0,0,0-44.86,44.86,42,42,0,0,0,1.41,11c-47.61,24.67-96.31,41.72-139.12,48.89A193,193,0,0,1,79.49,332.9Zm227.43,19.22a12.7,12.7,0,0,1,.19-2.24,19.2,19.2,0,0,1,19-17,17.89,17.89,0,0,1,6.66,1.28,19.14,19.14,0,0,1,12.56,17.94,18.48,18.48,0,0,1-.7,5,19.19,19.19,0,0,1-18.52,14.23,17.5,17.5,0,0,1-4.1-.45A19.29,19.29,0,0,1,306.91,352.12Zm-51.27,96.12a189.25,189.25,0,0,1-78.76-17C214.38,422,255,406.59,296,385.25a44.81,44.81,0,0,0,75-33.13,43.8,43.8,0,0,0-1.54-11.66c30-21.21,56.14-43.9,77.54-66.71C438.09,371.47,355.61,448.24,255.65,448.24ZM412.33,104.64H412v-.32c.13.13.26.19.32.32,17.56,0,32.43,2.24,44.15,6.6s20.31,10.7,25.06,18.9c9.8,17,4.42,43.9-14,74.85A216.85,216.85,0,0,0,412.33,104.64Z"/></svg>